<?xml version="1.0" encoding="UTF-8" standalone="no"?><!DOCTYPE svg PUBLIC "-//W3C//DTD SVG 1.1//EN" "http://www.w3.org/Graphics/SVG/1.1/DTD/svg11.dtd"><svg width="100%" height="100%" viewBox="0 0 2414 658" version="1.1" xmlns="http://www.w3.org/2000/svg" xmlns:xlink="http://www.w3.org/1999/xlink" xml:space="preserve" xmlns:serif="http://www.serif.com/" style="fill-rule:evenodd;clip-rule:evenodd;stroke-linejoin:round;stroke-miterlimit:2;"><path d="M2295.4,613.819c-24.594,13.782 -51.385,23.847 -80.374,30.196c-28.988,6.349 -57.878,8.381 -86.671,6.098c-28.792,-2.284 -56.124,-9.543 -82.007,-21.786c-25.871,-12.236 -46.226,-25.615 -61.051,-40.129c-14.826,-14.514 -27.956,-31.923 -39.391,-52.227c-11.435,-20.304 -32.445,-88.98 -63.03,-206.029c-30.585,-117.049 -48.168,-187.846 -46.891,-190.014c1.266,-2.174 21.203,-7.992 59.79,-17.467c38.598,-9.468 76.531,54.781 107.964,170.383c31.433,115.601 53.415,180.959 65.945,196.073c12.531,15.114 24.8,25.702 36.797,31.756c12.009,6.061 24.345,9.884 37.02,11.476c12.675,1.592 28.766,-0.161 48.274,-5.259c19.508,-5.098 32.405,-9.693 38.69,-13.788c6.286,-4.094 13.693,-10.933 22.221,-20.517c8.529,-9.584 15.524,-21.528 20.978,-35.82c5.461,-14.304 8.261,-28.211 8.405,-41.734c0.144,-13.522 -12.228,-67.906 -37.116,-163.152c-24.888,-95.246 -26.736,-124.327 -23.363,-209.039c0.17,-4.273 14.716,-9.362 39.962,-15.959c25.246,-6.597 40.973,-8.563 47.192,-5.893c6.208,2.664 24.61,62.523 55.195,179.572c30.585,117.049 46.406,184.629 47.461,202.742c1.055,18.113 -0.185,36.825 -3.72,56.137c-3.535,19.312 -10.303,39.16 -20.294,59.551c-10.002,20.384 -21.681,37.842 -35.048,52.368c-13.367,14.526 -32.347,28.68 -56.941,42.462Z" style="fill:#00406b;"/><path d="M834.686,556.913c-13.077,54.587 -29.095,90.574 -40.926,90.574c-43.941,0 -66.883,-0.975 -68.817,-2.936c-1.944,-1.951 -6.645,-317.639 -8.406,-354.013c-1.971,-40.693 -24.978,-122.919 -120.511,-122.919c-95.533,0 -119.662,91.833 -121.9,122.919c-2.738,38.008 -35.16,356.877 -43.724,356.734c-8.564,0.143 -40.987,-318.726 -43.724,-356.734c-2.239,-31.086 -26.367,-122.919 -121.9,-122.919c-95.533,0 -118.54,82.226 -120.511,122.919c-1.762,36.373 -6.462,352.062 -8.406,354.013c-1.933,1.961 -24.876,2.936 -68.817,2.936c-34.057,0 -102.806,-298.191 -36.224,-479.868c28.199,-76.944 106.877,-152.706 232.761,-152.706c65.635,0 118.807,12.829 166.822,57.259c48.015,-44.43 101.187,-57.259 166.822,-57.259c103.776,0 175.472,51.488 213.251,112.681c-31.398,46.132 -53.155,110.791 -53.155,201.417c0,109.504 33.312,181.096 77.366,227.902Z" style="fill:#00406b;"/><path d="M1799.997,644.517c-0.674,6.012 -317.686,-1.565 -486.989,-1.565c-10.78,-0 -0.669,-25.406 2.006,-44.126c2.674,-18.72 6.017,-35.434 10.029,-50.143c4.011,-14.709 10.697,-30.086 20.057,-46.131c9.36,-16.046 21.063,-31.086 35.097,-45.131c14.045,-14.035 27.08,-25.069 39.114,-33.092c12.034,-8.023 54.154,-28.749 126.36,-62.177c72.206,-33.429 112.652,-55.154 121.348,-65.188c8.686,-10.023 15.04,-19.72 19.052,-29.08c4.011,-9.36 6.017,-20.726 6.017,-34.097c0,-13.371 -2.674,-26.074 -8.023,-38.109c-5.349,-12.034 -13.708,-22.394 -25.069,-31.091c-11.371,-8.686 -23.068,-15.04 -35.103,-19.052c-12.034,-4.011 -29.417,-5.349 -52.149,-4.011c-22.731,1.337 -40.783,5.349 -54.154,12.034c-13.371,6.686 -24.4,14.377 -33.097,23.063c-8.686,8.697 -15.04,17.051 -19.052,25.074c-4.011,8.023 -7.017,18.388 -9.028,31.086c-2,12.708 -17.046,19.057 -45.126,19.057c-28.08,0 -47.137,-12.371 -57.16,-37.103c-10.034,-24.743 -11.034,-46.468 -3.011,-65.188c8.023,-18.72 20.394,-37.108 37.103,-55.154c16.72,-18.057 39.114,-34.434 67.194,-49.143c28.08,-14.709 58.834,-24.069 92.263,-28.08c33.429,-4.011 66.189,-2.674 98.28,4.011c32.091,6.686 53.486,12.703 64.183,18.051c10.697,5.349 25.737,16.383 45.131,33.092c19.383,16.72 34.429,34.434 45.126,53.154c10.697,18.72 18.051,34.766 22.063,48.137c4.011,13.371 5.349,34.097 4.011,62.177c-1.337,28.08 -8.023,54.154 -20.057,78.223c-12.034,24.069 -29.749,46.468 -53.154,67.189c-23.395,20.731 -70.532,47.137 -141.4,79.228c-70.869,32.091 -110.646,53.149 -119.343,63.183c-8.686,10.023 228.615,-19.705 353.643,-19.031c125.018,0.663 -45.5,133.911 -46.163,139.933Z" style="fill:url(#_Linear1);"/><path d="M1075.656,645.298c-13.758,-0 -289.746,-1.095 -289.746,-316.287c0,-315.192 263.18,-316.287 279.779,-316.287c286.356,0 285.458,148.895 285.458,360.596c-48.628,-87.509 -166.332,115.941 -272.009,-44.309c-86.713,-75.3 -180.265,-4.115 -174.782,79.452c7.475,113.928 107.139,157.436 272.416,63.917c153.846,-87.052 171.805,-34.69 174.375,-15.692c1.411,10.434 -59.139,82.409 -81.489,104.748c-22.339,22.349 -45.644,39.903 -69.903,52.671c-24.26,12.768 -49.158,21.706 -74.694,26.813c-14.592,2.918 -31.061,4.378 -49.405,4.378Zm114.411,-515.978c-49.099,0 -88.961,39.862 -88.961,88.961c0,49.099 39.862,88.961 88.961,88.961c49.099,0 88.961,-39.862 88.961,-88.961c0,-49.099 -39.862,-88.961 -88.961,-88.961Z" style="fill:#00406b;"/><defs><linearGradient id="_Linear1" x1="0" y1="0" x2="1" y2="0" gradientUnits="userSpaceOnUse" gradientTransform="matrix(553.577397,657.874588,-657.874588,553.577397,1288.939477,5.134781)"><stop offset="0" style="stop-color:#007fff;stop-opacity:1"/><stop offset="1" style="stop-color:#007fff;stop-opacity:1"/></linearGradient></defs></svg>